<svg data-v-fde0c5aa="" xmlns="http://www.w3.org/2000/svg" viewBox="0 0 300 300" class="iconLeft">
    <!---->
    <defs data-v-fde0c5aa="">
        <!---->
    </defs>
    <rect data-v-fde0c5aa="" fill="#60433C" x="0" y="0" width="300px" height="300px" class="logo-background-square">
    </rect>
    <defs data-v-fde0c5aa="">
        <!---->
    </defs>
    <g data-v-fde0c5aa="" id="e190570d-5fc9-4668-887d-42f0cde5c44f" fill="#ffffff"
        transform="matrix(1.706683776231885,0,0,1.706683776231885,68.8684849007778,138.4969509758789)">
        <path
            d="M11.83 0.70L7.21 0.70L6.09 4.48L4.97 0.70L0.35 0.70L0.35 10.50L3.93 10.50L3.93 6.36L5.17 10.50L7.01 10.50L8.25 6.36L8.25 10.50L11.83 10.50ZM16.83 13.02L19.89 3.74L16.95 3.74L16.16 6.90L15.37 3.74L12.43 3.74L14.92 10.50L14.20 13.02ZM27.86 8.81L29.78 8.81L30.11 10.50L33.05 10.50L30.67 0.70L26.95 0.70L24.58 10.50L27.52 10.50ZM29.30 6.41L28.32 6.41L28.81 3.95ZM36.58 3.75L33.67 3.75L33.67 13.02L36.58 13.02L36.58 10.05C37.00 10.47 37.58 10.68 38.15 10.68C39.76 10.68 41.06 9.11 41.06 7.13C41.06 5.12 39.76 3.64 38.15 3.64C37.58 3.64 36.99 3.79 36.58 4.23ZM36.57 7.13C36.57 6.58 36.79 6.17 37.31 6.17C37.81 6.17 38.05 6.58 38.05 7.13C38.05 7.66 37.81 8.09 37.31 8.09C36.79 8.09 36.57 7.66 36.57 7.13ZM44.55 3.75L41.64 3.75L41.64 13.02L44.55 13.02L44.55 10.05C44.97 10.47 45.54 10.68 46.12 10.68C47.73 10.68 49.03 9.11 49.03 7.13C49.03 5.12 47.73 3.64 46.12 3.64C45.54 3.64 44.95 3.79 44.55 4.23ZM44.53 7.13C44.53 6.58 44.76 6.17 45.28 6.17C45.78 6.17 46.02 6.58 46.02 7.13C46.02 7.66 45.78 8.09 45.28 8.09C44.76 8.09 44.53 7.66 44.53 7.13ZM56.63 7.85C55.51 7.85 54.42 7.01 53.93 6.52L53.93 9.70C54.85 10.63 56.21 10.72 56.99 10.72C59.23 10.72 61.19 9.51 61.19 6.99C61.19 5.92 60.61 5.05 59.79 4.70C58.73 4.23 57.53 4.30 57.53 3.77C57.53 3.47 58.06 3.43 58.20 3.43C58.95 3.43 59.82 3.61 60.84 4.34L60.84 1.50C59.74 0.62 58.65 0.49 57.57 0.49C56.01 0.49 53.76 1.23 53.76 3.77C53.76 7.15 57.44 6.52 57.44 7.43C57.44 7.66 57.27 7.85 56.63 7.85ZM61.78 7.13C61.78 9.09 63.42 10.65 65.46 10.65C67.51 10.65 69.16 9.09 69.16 7.13C69.16 5.17 67.51 3.58 65.46 3.58C63.42 3.58 61.78 5.17 61.78 7.13ZM64.72 7.13C64.72 6.61 64.95 6.17 65.46 6.17C65.97 6.17 66.22 6.61 66.22 7.13C66.22 7.66 65.97 8.06 65.46 8.06C64.95 8.06 64.72 7.66 64.72 7.13ZM72.73 10.50L72.73 0.70C72.73 0.70 69.79 0.70 69.79 0.70L69.79 10.50ZM77.48 3.75L77.48 6.97C77.48 7.41 77.38 7.91 76.82 7.91C76.59 7.91 76.36 7.69 76.36 7.43L76.36 3.75L73.42 3.75L73.42 7.43C73.42 9.02 73.74 10.65 75.49 10.65C76.73 10.65 77.13 10.21 77.48 10.01L77.48 10.51L80.42 10.51L80.42 3.75ZM86.07 10.19C86.07 10.19 86.07 7.88 86.07 7.91C85.83 7.98 85.48 8.02 85.25 8.02C84.97 8.02 84.97 7.87 84.97 7.57C84.97 7.57 84.97 6.15 84.97 6.15L86.07 6.15L86.07 3.74L84.97 3.74L84.97 1.95L82.03 1.95L82.03 3.74L81.02 3.74L81.02 6.15L82.03 6.15C82.03 6.15 82.03 7.57 82.03 7.57C82.03 9.98 82.98 10.50 84.70 10.50C85.18 10.50 85.62 10.36 86.07 10.19ZM86.97 10.50L86.97 3.74C86.97 3.74 89.91 3.74 89.91 3.74L89.91 10.50ZM86.69 1.90C86.69 2.67 87.46 3.33 88.44 3.33C89.40 3.33 90.17 2.67 90.17 1.90C90.17 1.12 89.40 0.46 88.44 0.46C87.46 0.46 86.69 1.12 86.69 1.90ZM90.76 7.13C90.76 9.09 92.40 10.65 94.44 10.65C96.49 10.65 98.14 9.09 98.14 7.13C98.14 5.17 96.49 3.58 94.44 3.58C92.40 3.58 90.76 5.17 90.76 7.13ZM93.70 7.13C93.70 6.61 93.93 6.17 94.44 6.17C94.95 6.17 95.20 6.61 95.20 7.13C95.20 7.66 94.95 8.06 94.44 8.06C93.93 8.06 93.70 7.66 93.70 7.13ZM101.71 10.50L101.71 7.28C101.71 6.85 101.81 6.34 102.37 6.34C102.59 6.34 102.83 6.57 102.83 6.82L102.83 10.50L105.77 10.50L105.77 6.82C105.77 5.24 105.45 3.60 103.70 3.60C102.45 3.60 102.06 4.05 101.71 4.24L101.71 3.74L98.77 3.74L98.77 10.50ZM108.30 8.58C107.51 8.58 106.96 8.22 106.54 7.83L106.54 9.95C107.24 10.58 108.26 10.65 108.85 10.65C110.52 10.65 111.99 9.81 111.99 8.08C111.99 7.35 111.54 6.75 110.94 6.51C110.14 6.17 109.70 6.27 109.70 5.91C109.70 5.70 110.10 5.67 110.19 5.67C110.52 5.67 110.95 5.75 111.72 6.26L111.72 4.30C110.89 3.70 110.07 3.61 109.27 3.61C108.12 3.61 106.43 4.12 106.43 5.87C106.43 8.19 108.92 7.66 108.92 8.29C108.92 8.44 108.79 8.58 108.30 8.58Z">
        </path>
    </g>
    <defs data-v-fde0c5aa="">
        <!---->
    </defs>
    <g data-v-fde0c5aa="" id="ce186441-22b2-4464-9472-00c0d5383182" stroke="none" fill="#9F916B"
        transform="matrix(1.0048101068261948,0,0,1.0048101068261948,32.15544733501995,133.92303829078088)">
        <path d="M18.396 26.495L7.807 15.905 18.432 5.28l.707.707-9.918 9.918 9.882 9.883z"></path>
        <path
            d="M23.194 1v4.194H19V1h4.194m1-1H18v6.194h6.194V0zM23.194 26.806V31H19v-4.194h4.194m1-1H18V32h6.194v-6.194z">
        </path>
    </g>
    <!---->
</svg>
